<?xml version="1.0" encoding="UTF-8" ?>
<svg version="1.1" width="40" height="40" xmlns="http://www.w3.org/2000/svg" shape-rendering="crispEdges">
<rect x="0" y="0" width="4" height="4" fill="#FFFFFF" />
<rect x="24" y="0" width="8" height="4" fill="#FFFFFF" />
<rect x="4" y="4" width="4" height="4" fill="#FFFFFF" />
<rect x="12" y="4" width="12" height="4" fill="#FFFFFF" />
<rect x="12" y="8" width="4" height="32" fill="#FFFFFF" />
<rect x="28" y="8" width="8" height="4" fill="#FFFFFF" />
<rect x="0" y="12" width="4" height="4" fill="#FFFFFF" />
<rect x="20" y="12" width="8" height="4" fill="#FFFFFF" />
<rect x="4" y="16" width="4" height="4" fill="#FFFFFF" />
<rect x="20" y="16" width="4" height="24" fill="#FFFFFF" />
<rect x="36" y="16" width="4" height="4" fill="#FFFFFF" />
<rect x="24" y="20" width="4" height="4" fill="#FFFFFF" />
<rect x="32" y="20" width="4" height="4" fill="#FFFFFF" />
<rect x="28" y="24" width="4" height="4" fill="#FFFFFF" />
<rect x="4" y="28" width="4" height="8" fill="#FFFFFF" />
<rect x="32" y="28" width="4" height="8" fill="#FFFFFF" />
<rect x="0" y="36" width="4" height="4" fill="#FFFFFF" />
<rect x="24" y="36" width="4" height="4" fill="#FFFFFF" />
<rect x="36" y="36" width="4" height="4" fill="#FFFFFF" />
</svg>
